solid WEMtoSTL_0
facet normal 0.743072 -0.622969 -0.244446
outer loop
vertex 11.9033 9.25197 11.1153
vertex 11.2017 8.72975 10.3132
vertex 11.7364 9.63118 9.64136
endloop
endfacet
facet normal 0.665478 -0.657742 -0.352866
outer loop
vertex 11.2017 8.72975 10.3132
vertex 10.8201 8.81417 9.43627
vertex 11.7364 9.63118 9.64136
endloop
endfacet
facet normal 0.42163 0.847679 -0.321974
outer loop
vertex 11.304 12.5203 8.53695
vertex 10.8513 12.8124 8.71292
vertex 11.7367 12.664 9.48193
endloop
endfacet
facet normal -0.148757 -0.830759 -0.536387
outer loop
vertex 8.71839 10.2551 6.97644
vertex 9.02724 10.544 6.44331
vertex 9.40375 10.243 6.80514
endloop
endfacet
facet normal 0.684459 0.0755728 0.725124
outer loop
vertex 11.978 10.7404 14.388
vertex 11.7986 9.75781 14.6597
vertex 12.6023 9.95283 13.8808
endloop
endfacet
facet normal -0.288883 0.949301 0.123993
outer loop
vertex 9.99116 13.0408 11.6736
vertex 9.5367 12.7314 12.9838
vertex 10.5329 13.0854 12.5945
endloop
endfacet
facet normal -0.778403 -0.463465 -0.423426
outer loop
vertex 8.57559 10.8975 6.53582
vertex 8.71839 10.2551 6.97644
vertex 8.20496 10.9538 7.15556
endloop
endfacet
facet normal -0.790638 -0.485298 -0.373333
outer loop
vertex 8.08188 10.5405 7.95349
vertex 8.20496 10.9538 7.15556
vertex 8.71839 10.2551 6.97644
endloop
endfacet
facet normal -0.180354 0.969211 -0.167636
outer loop
vertex 10.1253 12.7248 8.2659
vertex 9.59082 12.7375 8.91452
vertex 10.2812 13.018 9.79354
endloop
endfacet
facet normal -0.557867 -0.550197 -0.621344
outer loop
vertex 8.71839 10.2551 6.97644
vertex 8.57559 10.8975 6.53582
vertex 9.02724 10.544 6.44331
endloop
endfacet
facet normal -0.897927 -0.426529 -0.108631
outer loop
vertex 7.62007 9.97178 11.2391
vertex 7.95953 9.07222 11.9653
vertex 7.67226 9.56106 12.4204
endloop
endfacet
facet normal 0.475158 -0.831841 -0.286819
outer loop
vertex 10.5167 8.35268 10.2719
vertex 10.8201 8.81417 9.43627
vertex 11.2017 8.72975 10.3132
endloop
endfacet
facet normal 0.243053 -0.606205 -0.757259
outer loop
vertex 9.40375 10.243 6.80514
vertex 9.02724 10.544 6.44331
vertex 9.83227 10.8986 6.4178
endloop
endfacet
facet normal -0.907633 -0.411078 -0.0849521
outer loop
vertex 7.94667 9.42869 10.3778
vertex 7.95953 9.07222 11.9653
vertex 7.62007 9.97178 11.2391
endloop
endfacet
facet normal -0.37453 -0.92583 -0.0506609
outer loop
vertex 8.44877 8.37656 12.8078
vertex 8.44554 8.43979 11.6763
vertex 9.10233 8.17217 11.7114
endloop
endfacet
facet normal 0.44278 -0.652612 -0.614852
outer loop
vertex 9.40375 10.243 6.80514
vertex 9.83227 10.8986 6.4178
vertex 10.4933 10.7138 7.09009
endloop
endfacet
facet normal -0.983427 -0.0295457 0.178883
outer loop
vertex 7.67226 9.56106 12.4204
vertex 7.86693 9.73165 13.5188
vertex 7.71997 10.1336 12.7773
endloop
endfacet
facet normal 0.87016 0.0161761 -0.492503
outer loop
vertex 11.2642 11.2279 7.94892
vertex 11.8984 11.9718 9.09383
vertex 12.1932 11.2514 9.59106
endloop
endfacet
facet normal -0.996911 0.0514509 0.0593389
outer loop
vertex 7.68518 10.798 11.6166
vertex 7.62007 9.97178 11.2391
vertex 7.71997 10.1336 12.7773
endloop
endfacet
facet normal 0.983893 0.0152286 -0.178107
outer loop
vertex 12.4956 11.0795 11.2467
vertex 12.4422 10.2307 10.8794
vertex 12.1932 11.2514 9.59106
endloop
endfacet
facet normal -0.16545 0.0464095 -0.985126
outer loop
vertex 9.02724 10.544 6.44331
vertex 8.57559 10.8975 6.53582
vertex 9.10608 11.2576 6.46369
endloop
endfacet
facet normal -0.219089 -0.503925 0.8355
outer loop
vertex 9.01542 9.09972 14.8293
vertex 9.10209 8.56923 14.532
vertex 10.0363 8.66466 14.8346
endloop
endfacet
facet normal 0.602794 -0.796106 0.0534315
outer loop
vertex 11.1371 8.01194 13.6144
vertex 11.7385 8.42963 13.0534
vertex 11.6726 8.44712 14.0577
endloop
endfacet
facet normal 0.299075 0.153719 0.941767
outer loop
vertex 10.8574 9.79935 14.9519
vertex 11.2685 9.05151 14.9434
vertex 11.7986 9.75781 14.6597
endloop
endfacet
facet normal -0.717743 -0.651825 -0.244885
outer loop
vertex 7.94667 9.42869 10.3778
vertex 8.31038 9.34309 9.53959
vertex 8.8269 8.4188 10.4859
endloop
endfacet
facet normal -0.0464498 0.0336403 -0.998354
outer loop
vertex 9.02724 10.544 6.44331
vertex 9.10608 11.2576 6.46369
vertex 9.83227 10.8986 6.4178
endloop
endfacet
facet normal -0.946488 0.320173 0.0406073
outer loop
vertex 7.71406 11.0413 10.3715
vertex 7.68518 10.798 11.6166
vertex 7.95723 11.6021 11.6177
endloop
endfacet
facet normal -0.270538 -0.962538 0.0181703
outer loop
vertex 9.38559 8.1177 13.0435
vertex 8.44877 8.37656 12.8078
vertex 9.10233 8.17217 11.7114
endloop
endfacet
facet normal 0.591443 -0.410011 -0.694324
outer loop
vertex 10.4933 10.7138 7.09009
vertex 9.83227 10.8986 6.4178
vertex 10.4954 11.4336 6.66675
endloop
endfacet
facet normal 0.244867 -0.883629 -0.399049
outer loop
vertex 10.5167 8.35268 10.2719
vertex 9.88524 8.56529 9.41369
vertex 10.8201 8.81417 9.43627
endloop
endfacet
facet normal 0.773461 -0.604478 -0.190697
outer loop
vertex 11.7385 8.42963 13.0534
vertex 11.9033 9.25197 11.1153
vertex 12.3561 9.22449 13.0389
endloop
endfacet
facet normal -0.934205 0.310752 0.175195
outer loop
vertex 8.17777 11.5191 12.941
vertex 7.95723 11.6021 11.6177
vertex 8.00005 10.694 13.4568
endloop
endfacet
facet normal -0.766063 0.409619 -0.495337
outer loop
vertex 8.57559 10.8975 6.53582
vertex 8.20496 10.9538 7.15556
vertex 8.68019 11.5411 6.90632
endloop
endfacet
facet normal 0.950071 0.300122 0.0853855
outer loop
vertex 12.3346 11.9399 11.6894
vertex 12.2148 11.9147 13.1113
vertex 12.5574 10.8744 12.956
endloop
endfacet
facet normal -0.799372 -0.600023 -0.0312437
outer loop
vertex 8.44554 8.43979 11.6763
vertex 8.44877 8.37656 12.8078
vertex 7.95953 9.07222 11.9653
endloop
endfacet
facet normal -0.441037 0.500499 -0.744975
outer loop
vertex 8.57559 10.8975 6.53582
vertex 8.68019 11.5411 6.90632
vertex 9.10608 11.2576 6.46369
endloop
endfacet
facet normal 0.802194 -0.593731 0.0629988
outer loop
vertex 11.6726 8.44712 14.0577
vertex 11.7385 8.42963 13.0534
vertex 12.1826 9.12418 13.9438
endloop
endfacet
facet normal 0.475277 -0.869022 -0.137525
outer loop
vertex 11.0774 8.23742 11.9832
vertex 11.7385 8.42963 13.0534
vertex 11.1371 8.01194 13.6144
endloop
endfacet
facet normal -0.128476 -0.134329 -0.982573
outer loop
vertex 9.83227 10.8986 6.4178
vertex 9.10608 11.2576 6.46369
vertex 9.83086 11.4408 6.34387
endloop
endfacet
facet normal 0.767385 0.233765 0.597055
outer loop
vertex 12.0458 11.7167 13.9187
vertex 11.978 10.7404 14.388
vertex 12.4513 10.6495 13.8153
endloop
endfacet
facet normal -0.775204 -0.605003 0.181739
outer loop
vertex 8.44877 8.37656 12.8078
vertex 8.63867 8.44316 13.8396
vertex 8.0521 9.08647 13.4791
endloop
endfacet
facet normal -0.19174 0.157033 0.968801
outer loop
vertex 8.74048 10.134 14.7115
vertex 9.82197 9.48309 15.031
vertex 9.82112 10.8113 14.8156
endloop
endfacet
facet normal -0.0116242 -0.236282 0.971615
outer loop
vertex 9.82197 9.48309 15.031
vertex 10.0363 8.66466 14.8346
vertex 11.2685 9.05151 14.9434
endloop
endfacet
facet normal 0.432777 -0.120706 -0.893384
outer loop
vertex 9.83227 10.8986 6.4178
vertex 9.83086 11.4408 6.34387
vertex 10.4954 11.4336 6.66675
endloop
endfacet
facet normal -0.370646 -0.923104 -0.102473
outer loop
vertex 8.44554 8.43979 11.6763
vertex 8.8269 8.4188 10.4859
vertex 9.10233 8.17217 11.7114
endloop
endfacet
facet normal 0.231774 0.632509 0.739063
outer loop
vertex 11.614 11.8764 14.316
vertex 11.2718 12.5354 13.8593
vertex 10.5193 12.2315 14.3554
endloop
endfacet
facet normal 0.8939 -0.430876 0.123646
outer loop
vertex 12.3561 9.22449 13.0389
vertex 12.7259 9.88225 12.6576
vertex 12.1826 9.12418 13.9438
endloop
endfacet
facet normal -0.275936 0.957075 -0.0886963
outer loop
vertex 9.59082 12.7375 8.91452
vertex 9.45192 12.8188 10.223
vertex 10.2812 13.018 9.79354
endloop
endfacet
facet normal -0.3551 0.593771 -0.722039
outer loop
vertex 9.10608 11.2576 6.46369
vertex 8.68019 11.5411 6.90632
vertex 9.39301 11.8996 6.85055
endloop
endfacet
facet normal -0.0772746 -0.991224 -0.107259
outer loop
vertex 9.77021 8.28667 10.1721
vertex 10.1744 8.00846 12.452
vertex 9.10233 8.17217 11.7114
endloop
endfacet
facet normal -0.200858 0.63346 -0.747251
outer loop
vertex 10.1348 11.9332 6.67964
vertex 9.83086 11.4408 6.34387
vertex 9.39301 11.8996 6.85055
endloop
endfacet
facet normal -0.273818 0.583203 -0.764786
outer loop
vertex 9.10608 11.2576 6.46369
vertex 9.39301 11.8996 6.85055
vertex 9.83086 11.4408 6.34387
endloop
endfacet
facet normal 0.697387 -0.69986 -0.154426
outer loop
vertex 11.0774 8.23742 11.9832
vertex 11.2017 8.72975 10.3132
vertex 11.9033 9.25197 11.1153
endloop
endfacet
facet normal 0.792954 0.360795 -0.490969
outer loop
vertex 11.8984 11.9718 9.09383
vertex 10.8817 12.0306 7.49507
vertex 11.304 12.5203 8.53695
endloop
endfacet
facet normal 0.313356 0.199535 0.928436
outer loop
vertex 11.162 10.8929 14.6307
vertex 11.7986 9.75781 14.6597
vertex 11.978 10.7404 14.388
endloop
endfacet
facet normal 0.416471 0.322528 -0.850016
outer loop
vertex 10.4954 11.4336 6.66675
vertex 9.83086 11.4408 6.34387
vertex 10.1348 11.9332 6.67964
endloop
endfacet
facet normal 0.704144 0.267358 0.6578
outer loop
vertex 11.614 11.8764 14.316
vertex 11.978 10.7404 14.388
vertex 12.0458 11.7167 13.9187
endloop
endfacet
facet normal 0.768523 0.222983 0.599708
outer loop
vertex 12.4513 10.6495 13.8153
vertex 11.978 10.7404 14.388
vertex 12.6023 9.95283 13.8808
endloop
endfacet
facet normal -0.626179 -0.032126 0.779018
outer loop
vertex 8.38365 9.27292 14.3892
vertex 8.74048 10.134 14.7115
vertex 8.22589 10.1713 14.2994
endloop
endfacet
facet normal -0.937878 -0.306703 -0.162227
outer loop
vertex 7.83088 10.2443 9.50515
vertex 7.94667 9.42869 10.3778
vertex 7.62007 9.97178 11.2391
endloop
endfacet
facet normal -0.118144 0.358184 0.926146
outer loop
vertex 9.41668 11.7806 14.3891
vertex 9.82112 10.8113 14.8156
vertex 10.5193 12.2315 14.3554
endloop
endfacet
facet normal -0.832858 -0.455159 -0.314925
outer loop
vertex 8.31038 9.34309 9.53959
vertex 7.94667 9.42869 10.3778
vertex 7.83088 10.2443 9.50515
endloop
endfacet
facet normal 0.105646 -0.984657 -0.138886
outer loop
vertex 9.77021 8.28667 10.1721
vertex 10.5167 8.35268 10.2719
vertex 10.1744 8.00846 12.452
endloop
endfacet
facet normal 0.0265517 0.160083 0.986746
outer loop
vertex 9.82112 10.8113 14.8156
vertex 9.82197 9.48309 15.031
vertex 10.8574 9.79935 14.9519
endloop
endfacet
facet normal 0.623823 0.466446 -0.627115
outer loop
vertex 10.4954 11.4336 6.66675
vertex 10.1348 11.9332 6.67964
vertex 10.8817 12.0306 7.49507
endloop
endfacet
facet normal 0.829493 -0.511002 -0.225429
outer loop
vertex 11.9033 9.25197 11.1153
vertex 11.7364 9.63118 9.64136
vertex 12.4422 10.2307 10.8794
endloop
endfacet
facet normal -0.813064 -0.569404 -0.121269
outer loop
vertex 7.95953 9.07222 11.9653
vertex 7.94667 9.42869 10.3778
vertex 8.44554 8.43979 11.6763
endloop
endfacet
facet normal -0.928711 0.362398 -0.078508
outer loop
vertex 7.88891 11.1068 8.60557
vertex 7.71406 11.0413 10.3715
vertex 8.06169 11.6322 8.98681
endloop
endfacet
facet normal -0.997153 0.0457278 0.0599566
outer loop
vertex 7.62007 9.97178 11.2391
vertex 7.67226 9.56106 12.4204
vertex 7.71997 10.1336 12.7773
endloop
endfacet
facet normal -0.228622 -0.938978 -0.257007
outer loop
vertex 8.58029 9.78119 8.74848
vertex 8.75922 10.0054 7.77008
vertex 9.55234 9.72228 8.09901
endloop
endfacet
facet normal -0.183449 -0.919071 -0.34879
outer loop
vertex 9.55234 9.72228 8.09901
vertex 8.75922 10.0054 7.77008
vertex 9.40375 10.243 6.80514
endloop
endfacet
facet normal -0.0904611 -0.951323 -0.294619
outer loop
vertex 8.75922 10.0054 7.77008
vertex 8.71839 10.2551 6.97644
vertex 9.40375 10.243 6.80514
endloop
endfacet
facet normal 0.983555 0.0447261 -0.174982
outer loop
vertex 12.4956 11.0795 11.2467
vertex 12.1932 11.2514 9.59106
vertex 12.2605 11.9635 10.1511
endloop
endfacet
facet normal 0.0559459 -0.43146 0.900396
outer loop
vertex 10.0363 8.66466 14.8346
vertex 11.2734 8.53194 14.6941
vertex 11.2685 9.05151 14.9434
endloop
endfacet
facet normal 0.177587 -0.905721 -0.38488
outer loop
vertex 9.89559 10.0456 7.49663
vertex 9.55234 9.72228 8.09901
vertex 9.40375 10.243 6.80514
endloop
endfacet
facet normal 0.972648 -0.0492359 -0.227004
outer loop
vertex 12.4422 10.2307 10.8794
vertex 12.1774 10.5313 9.6796
vertex 12.1932 11.2514 9.59106
endloop
endfacet
facet normal -0.454984 0.888972 0.0521281
outer loop
vertex 8.89103 12.486 11.5327
vertex 9.5367 12.7314 12.9838
vertex 9.99116 13.0408 11.6736
endloop
endfacet
facet normal -0.588151 -0.46632 0.660775
outer loop
vertex 9.01542 9.09972 14.8293
vertex 8.38365 9.27292 14.3892
vertex 9.10209 8.56923 14.532
endloop
endfacet
facet normal 0.787614 -0.610505 0.0833543
outer loop
vertex 11.7385 8.42963 13.0534
vertex 12.3561 9.22449 13.0389
vertex 12.1826 9.12418 13.9438
endloop
endfacet
facet normal 0.127899 -0.902426 -0.411424
outer loop
vertex 9.55234 9.72228 8.09901
vertex 9.89559 10.0456 7.49663
vertex 10.6407 9.73513 8.40917
endloop
endfacet
facet normal -0.681959 0.72761 0.0742683
outer loop
vertex 8.07499 11.8307 10.4593
vertex 7.95723 11.6021 11.6177
vertex 8.89103 12.486 11.5327
endloop
endfacet
facet normal -0.626391 0.582504 0.518
outer loop
vertex 8.89118 11.9235 13.593
vertex 9.41668 11.7806 14.3891
vertex 9.75022 12.5315 13.948
endloop
endfacet
facet normal -0.640117 -0.741684 -0.20039
outer loop
vertex 8.71839 10.2551 6.97644
vertex 8.75922 10.0054 7.77008
vertex 8.08188 10.5405 7.95349
endloop
endfacet
facet normal 0.691284 0.672643 0.263966
outer loop
vertex 11.356 12.7849 13.003
vertex 11.2718 12.5354 13.8593
vertex 12.0458 11.7167 13.9187
endloop
endfacet
facet normal -0.779119 -0.494588 0.385171
outer loop
vertex 8.0521 9.08647 13.4791
vertex 8.63867 8.44316 13.8396
vertex 8.38365 9.27292 14.3892
endloop
endfacet
facet normal -0.640578 -0.714656 -0.280937
outer loop
vertex 8.08188 10.5405 7.95349
vertex 8.75922 10.0054 7.77008
vertex 8.58029 9.78119 8.74848
endloop
endfacet
facet normal -0.629935 0.585799 0.509923
outer loop
vertex 8.28708 10.949 13.9662
vertex 8.74133 10.9824 14.489
vertex 8.89118 11.9235 13.593
endloop
endfacet
facet normal 0.0682518 0.0262103 0.997324
outer loop
vertex 9.82197 9.48309 15.031
vertex 11.2685 9.05151 14.9434
vertex 10.8574 9.79935 14.9519
endloop
endfacet
facet normal 0.182179 -0.975238 -0.125383
outer loop
vertex 10.5167 8.35268 10.2719
vertex 11.0774 8.23742 11.9832
vertex 10.1744 8.00846 12.452
endloop
endfacet
facet normal -0.559933 0.828015 -0.0294229
outer loop
vertex 8.69074 12.3142 10.5104
vertex 8.89103 12.486 11.5327
vertex 9.45192 12.8188 10.223
endloop
endfacet
facet normal -0.932317 0.315178 0.177336
outer loop
vertex 7.68518 10.798 11.6166
vertex 8.00005 10.694 13.4568
vertex 7.95723 11.6021 11.6177
endloop
endfacet
facet normal 0.264221 0.91866 0.293687
outer loop
vertex 11.2718 12.5354 13.8593
vertex 11.356 12.7849 13.003
vertex 10.5017 12.8457 13.5813
endloop
endfacet
facet normal -0.581945 -0.0623678 0.810833
outer loop
vertex 8.74048 10.134 14.7115
vertex 8.38365 9.27292 14.3892
vertex 9.01542 9.09972 14.8293
endloop
endfacet
facet normal 0.449523 -0.72207 -0.525875
outer loop
vertex 9.89559 10.0456 7.49663
vertex 9.40375 10.243 6.80514
vertex 10.4933 10.7138 7.09009
endloop
endfacet
facet normal -0.609317 0.786569 -0.100207
outer loop
vertex 8.69074 12.3142 10.5104
vertex 8.82909 12.2177 8.9116
vertex 8.07499 11.8307 10.4593
endloop
endfacet
facet normal -0.975617 -0.123555 -0.181398
outer loop
vertex 8.08188 10.5405 7.95349
vertex 7.83088 10.2443 9.50515
vertex 7.88891 11.1068 8.60557
endloop
endfacet
facet normal 0.027571 0.984561 -0.172857
outer loop
vertex 10.8513 12.8124 8.71292
vertex 10.2812 13.018 9.79354
vertex 11.1878 13.0446 10.0894
endloop
endfacet
facet normal 0.981675 0.19014 -0.0126931
outer loop
vertex 12.4956 11.0795 11.2467
vertex 12.3346 11.9399 11.6894
vertex 12.5574 10.8744 12.956
endloop
endfacet
facet normal 0.854754 -0.0639841 0.515074
outer loop
vertex 11.796 8.90957 14.5587
vertex 12.1826 9.12418 13.9438
vertex 11.7986 9.75781 14.6597
endloop
endfacet
facet normal 0.40569 -0.711775 -0.573404
outer loop
vertex 10.6407 9.73513 8.40917
vertex 9.89559 10.0456 7.49663
vertex 10.4933 10.7138 7.09009
endloop
endfacet
facet normal 0.587933 -0.616822 -0.523321
outer loop
vertex 10.6407 9.73513 8.40917
vertex 10.4933 10.7138 7.09009
vertex 11.4933 10.2649 8.74259
endloop
endfacet
facet normal -0.55204 0.810054 -0.197645
outer loop
vertex 8.97185 12.0405 7.78651
vertex 8.82909 12.2177 8.9116
vertex 9.59082 12.7375 8.91452
endloop
endfacet
facet normal 0.454956 0.890384 -0.0152357
outer loop
vertex 11.1878 13.0446 10.0894
vertex 11.6904 12.8143 11.643
vertex 11.9923 12.6418 10.5722
endloop
endfacet
facet normal 0.117367 0.249641 0.961199
outer loop
vertex 9.82112 10.8113 14.8156
vertex 10.8574 9.79935 14.9519
vertex 11.162 10.8929 14.6307
endloop
endfacet
facet normal 0.795133 0.592638 0.128623
outer loop
vertex 11.9923 12.6418 10.5722
vertex 11.6904 12.8143 11.643
vertex 12.3346 11.9399 11.6894
endloop
endfacet
facet normal 0.985915 0.139961 0.0915513
outer loop
vertex 12.6023 9.95283 13.8808
vertex 12.7259 9.88225 12.6576
vertex 12.5574 10.8744 12.956
endloop
endfacet
facet normal 0.65816 0.687681 0.306463
outer loop
vertex 12.0458 11.7167 13.9187
vertex 12.2148 11.9147 13.1113
vertex 11.356 12.7849 13.003
endloop
endfacet
facet normal 0.17387 -0.974611 -0.141079
outer loop
vertex 10.1744 8.00846 12.452
vertex 11.0774 8.23742 11.9832
vertex 11.1371 8.01194 13.6144
endloop
endfacet
facet normal -0.108187 0.993716 -0.0287115
outer loop
vertex 10.2812 13.018 9.79354
vertex 9.99116 13.0408 11.6736
vertex 10.8918 13.1394 11.6941
endloop
endfacet
facet normal -0.00250418 0.982117 -0.188258
outer loop
vertex 10.1253 12.7248 8.2659
vertex 10.2812 13.018 9.79354
vertex 10.8513 12.8124 8.71292
endloop
endfacet
facet normal -0.992385 -0.0122226 -0.122568
outer loop
vertex 7.83088 10.2443 9.50515
vertex 7.62007 9.97178 11.2391
vertex 7.71406 11.0413 10.3715
endloop
endfacet
facet normal 0.308488 0.158332 0.937959
outer loop
vertex 11.162 10.8929 14.6307
vertex 11.978 10.7404 14.388
vertex 11.614 11.8764 14.316
endloop
endfacet
facet normal -0.616968 0.786907 -0.0113401
outer loop
vertex 8.89103 12.486 11.5327
vertex 8.69074 12.3142 10.5104
vertex 8.07499 11.8307 10.4593
endloop
endfacet
facet normal 0.0917878 0.781038 0.617701
outer loop
vertex 10.5193 12.2315 14.3554
vertex 11.2718 12.5354 13.8593
vertex 10.5017 12.8457 13.5813
endloop
endfacet
facet normal -0.575425 0.811865 -0.0988011
outer loop
vertex 8.82909 12.2177 8.9116
vertex 8.69074 12.3142 10.5104
vertex 9.45192 12.8188 10.223
endloop
endfacet
facet normal 0.985008 0.171854 -0.0150074
outer loop
vertex 12.7259 9.88225 12.6576
vertex 12.4956 11.0795 11.2467
vertex 12.5574 10.8744 12.956
endloop
endfacet
facet normal 0.933901 0.162339 -0.318551
outer loop
vertex 12.1932 11.2514 9.59106
vertex 11.8984 11.9718 9.09383
vertex 12.2605 11.9635 10.1511
endloop
endfacet
facet normal 0.796006 0.426625 -0.429378
outer loop
vertex 11.304 12.5203 8.53695
vertex 11.7367 12.664 9.48193
vertex 11.8984 11.9718 9.09383
endloop
endfacet
facet normal 0.797236 -0.370336 -0.476725
outer loop
vertex 11.7364 9.63118 9.64136
vertex 11.4933 10.2649 8.74259
vertex 12.1774 10.5313 9.6796
endloop
endfacet
facet normal -0.97434 -0.0995565 -0.201865
outer loop
vertex 8.08188 10.5405 7.95349
vertex 7.88891 11.1068 8.60557
vertex 8.20496 10.9538 7.15556
endloop
endfacet
facet normal -0.996624 0.0817945 -0.0071379
outer loop
vertex 7.62007 9.97178 11.2391
vertex 7.68518 10.798 11.6166
vertex 7.71406 11.0413 10.3715
endloop
endfacet
facet normal 0.699894 -0.305387 0.645668
outer loop
vertex 11.7986 9.75781 14.6597
vertex 12.1826 9.12418 13.9438
vertex 12.6023 9.95283 13.8808
endloop
endfacet
facet normal -0.226955 -0.957413 0.178472
outer loop
vertex 9.38559 8.1177 13.0435
vertex 10.0098 8.12579 13.8807
vertex 8.63867 8.44316 13.8396
endloop
endfacet
facet normal 0.79109 -0.265821 -0.550923
outer loop
vertex 11.4933 10.2649 8.74259
vertex 10.4933 10.7138 7.09009
vertex 11.2642 11.2279 7.94892
endloop
endfacet
facet normal -0.200325 -0.95948 -0.198161
outer loop
vertex 8.8269 8.4188 10.4859
vertex 9.12186 8.52806 9.65875
vertex 9.77021 8.28667 10.1721
endloop
endfacet
facet normal -0.244618 0.246153 0.937854
outer loop
vertex 8.74133 10.9824 14.489
vertex 8.74048 10.134 14.7115
vertex 9.82112 10.8113 14.8156
endloop
endfacet
facet normal 0.868121 -0.0792795 -0.489981
outer loop
vertex 12.1932 11.2514 9.59106
vertex 12.1774 10.5313 9.6796
vertex 11.2642 11.2279 7.94892
endloop
endfacet
facet normal 0.227419 0.94462 0.236588
outer loop
vertex 10.5329 13.0854 12.5945
vertex 10.5017 12.8457 13.5813
vertex 11.356 12.7849 13.003
endloop
endfacet
facet normal -0.923167 0.305386 -0.233457
outer loop
vertex 8.20496 10.9538 7.15556
vertex 7.88891 11.1068 8.60557
vertex 8.31374 11.5502 7.50556
endloop
endfacet
facet normal 0.491797 0.86522 -0.0976195
outer loop
vertex 11.7367 12.664 9.48193
vertex 11.1878 13.0446 10.0894
vertex 11.9923 12.6418 10.5722
endloop
endfacet
facet normal 0.928075 0.266847 0.259749
outer loop
vertex 12.0458 11.7167 13.9187
vertex 12.5574 10.8744 12.956
vertex 12.2148 11.9147 13.1113
endloop
endfacet
facet normal -0.770985 0.421035 -0.477819
outer loop
vertex 8.20496 10.9538 7.15556
vertex 8.31374 11.5502 7.50556
vertex 8.68019 11.5411 6.90632
endloop
endfacet
facet normal 0.987663 0.00563865 -0.156494
outer loop
vertex 12.4422 10.2307 10.8794
vertex 12.4956 11.0795 11.2467
vertex 12.7259 9.88225 12.6576
endloop
endfacet
facet normal 0.792281 -0.310979 -0.52496
outer loop
vertex 10.4933 10.7138 7.09009
vertex 10.4954 11.4336 6.66675
vertex 11.2642 11.2279 7.94892
endloop
endfacet
facet normal -0.229874 0.309978 0.922535
outer loop
vertex 8.74133 10.9824 14.489
vertex 9.82112 10.8113 14.8156
vertex 9.41668 11.7806 14.3891
endloop
endfacet
facet normal -0.629767 0.721068 0.288885
outer loop
vertex 9.5367 12.7314 12.9838
vertex 8.89118 11.9235 13.593
vertex 9.75022 12.5315 13.948
endloop
endfacet
facet normal -0.61875 0.757841 0.206941
outer loop
vertex 8.17777 11.5191 12.941
vertex 8.89118 11.9235 13.593
vertex 8.89103 12.486 11.5327
endloop
endfacet
facet normal -0.0707345 -0.86765 0.492117
outer loop
vertex 9.10209 8.56923 14.532
vertex 10.0098 8.12579 13.8807
vertex 10.0363 8.66466 14.8346
endloop
endfacet
facet normal -0.481062 0.821339 -0.306564
outer loop
vertex 8.68019 11.5411 6.90632
vertex 8.31374 11.5502 7.50556
vertex 8.97185 12.0405 7.78651
endloop
endfacet
facet normal 0.922102 0.330957 0.200489
outer loop
vertex 12.4513 10.6495 13.8153
vertex 12.5574 10.8744 12.956
vertex 12.0458 11.7167 13.9187
endloop
endfacet
facet normal -0.552612 0.821674 -0.139546
outer loop
vertex 8.31374 11.5502 7.50556
vertex 8.06169 11.6322 8.98681
vertex 8.97185 12.0405 7.78651
endloop
endfacet
facet normal -0.199461 -0.850795 0.486171
outer loop
vertex 10.0098 8.12579 13.8807
vertex 10.8119 8.21932 14.3734
vertex 10.0363 8.66466 14.8346
endloop
endfacet
facet normal 0.827328 -0.511455 -0.232254
outer loop
vertex 11.9033 9.25197 11.1153
vertex 12.4422 10.2307 10.8794
vertex 12.7259 9.88225 12.6576
endloop
endfacet
facet normal 0.889648 -0.441827 0.115397
outer loop
vertex 12.6023 9.95283 13.8808
vertex 12.1826 9.12418 13.9438
vertex 12.7259 9.88225 12.6576
endloop
endfacet
facet normal 0.568743 -0.0990057 0.816535
outer loop
vertex 11.7986 9.75781 14.6597
vertex 11.2685 9.05151 14.9434
vertex 11.796 8.90957 14.5587
endloop
endfacet
facet normal -0.444998 0.834168 -0.325792
outer loop
vertex 8.68019 11.5411 6.90632
vertex 8.97185 12.0405 7.78651
vertex 9.39301 11.8996 6.85055
endloop
endfacet
facet normal 0.859427 0.129922 -0.494476
outer loop
vertex 10.4954 11.4336 6.66675
vertex 10.8817 12.0306 7.49507
vertex 11.2642 11.2279 7.94892
endloop
endfacet
facet normal -0.936331 -0.28163 0.209688
outer loop
vertex 7.67226 9.56106 12.4204
vertex 8.0521 9.08647 13.4791
vertex 7.86693 9.73165 13.5188
endloop
endfacet
facet normal -0.927633 0.150331 0.341902
outer loop
vertex 7.86693 9.73165 13.5188
vertex 8.22589 10.1713 14.2994
vertex 8.00005 10.694 13.4568
endloop
endfacet
facet normal -0.248691 0.943005 0.221121
outer loop
vertex 9.5367 12.7314 12.9838
vertex 10.5017 12.8457 13.5813
vertex 10.5329 13.0854 12.5945
endloop
endfacet
facet normal 0.841239 0.100464 -0.531248
outer loop
vertex 11.2642 11.2279 7.94892
vertex 10.8817 12.0306 7.49507
vertex 11.8984 11.9718 9.09383
endloop
endfacet
facet normal -0.89239 0.235215 0.385115
outer loop
vertex 8.28708 10.949 13.9662
vertex 8.00005 10.694 13.4568
vertex 8.22589 10.1713 14.2994
endloop
endfacet
facet normal -0.949318 0.259668 0.177107
outer loop
vertex 7.68518 10.798 11.6166
vertex 7.71997 10.1336 12.7773
vertex 8.00005 10.694 13.4568
endloop
endfacet
facet normal -0.906338 0.419773 -0.0484065
outer loop
vertex 8.06169 11.6322 8.98681
vertex 7.71406 11.0413 10.3715
vertex 8.07499 11.8307 10.4593
endloop
endfacet
facet normal 0.253824 -0.741107 0.621557
outer loop
vertex 11.796 8.90957 14.5587
vertex 11.2685 9.05151 14.9434
vertex 11.6726 8.44712 14.0577
endloop
endfacet
facet normal -0.0833709 -0.993912 0.0720229
outer loop
vertex 10.0098 8.12579 13.8807
vertex 10.1744 8.00846 12.452
vertex 11.1371 8.01194 13.6144
endloop
endfacet
facet normal -0.675152 -0.696786 -0.242194
outer loop
vertex 7.83088 10.2443 9.50515
vertex 8.08188 10.5405 7.95349
vertex 8.58029 9.78119 8.74848
endloop
endfacet
facet normal 0.116816 0.253548 0.960243
outer loop
vertex 10.5193 12.2315 14.3554
vertex 11.162 10.8929 14.6307
vertex 11.614 11.8764 14.316
endloop
endfacet
facet normal -0.447094 0.83276 -0.326523
outer loop
vertex 9.39301 11.8996 6.85055
vertex 8.97185 12.0405 7.78651
vertex 9.82945 12.3477 7.39585
endloop
endfacet
facet normal 0.629763 -0.732898 -0.257409
outer loop
vertex 11.0774 8.23742 11.9832
vertex 11.9033 9.25197 11.1153
vertex 11.7385 8.42963 13.0534
endloop
endfacet
facet normal 0.380781 0.917674 0.113495
outer loop
vertex 11.356 12.7849 13.003
vertex 11.6904 12.8143 11.643
vertex 10.8918 13.1394 11.6941
endloop
endfacet
facet normal -0.162886 0.822232 -0.545346
outer loop
vertex 10.1348 11.9332 6.67964
vertex 9.39301 11.8996 6.85055
vertex 9.82945 12.3477 7.39585
endloop
endfacet
facet normal 0.0506007 0.873576 -0.48405
outer loop
vertex 10.1348 11.9332 6.67964
vertex 9.82945 12.3477 7.39585
vertex 10.537 12.441 7.63818
endloop
endfacet
facet normal -0.692027 0.696373 0.190165
outer loop
vertex 9.5367 12.7314 12.9838
vertex 8.89103 12.486 11.5327
vertex 8.89118 11.9235 13.593
endloop
endfacet
facet normal 0.815276 -0.24025 -0.526882
outer loop
vertex 11.4933 10.2649 8.74259
vertex 11.2642 11.2279 7.94892
vertex 12.1774 10.5313 9.6796
endloop
endfacet
facet normal -0.377436 0.865993 -0.328023
outer loop
vertex 8.97185 12.0405 7.78651
vertex 9.59082 12.7375 8.91452
vertex 10.1253 12.7248 8.2659
endloop
endfacet
facet normal 0.366169 -0.84579 0.388021
outer loop
vertex 10.8119 8.21932 14.3734
vertex 11.1371 8.01194 13.6144
vertex 11.6726 8.44712 14.0577
endloop
endfacet
facet normal 0.527968 0.638593 -0.559865
outer loop
vertex 10.1348 11.9332 6.67964
vertex 10.537 12.441 7.63818
vertex 10.8817 12.0306 7.49507
endloop
endfacet
facet normal 0.865393 0.462257 -0.193427
outer loop
vertex 11.7367 12.664 9.48193
vertex 11.9923 12.6418 10.5722
vertex 12.2605 11.9635 10.1511
endloop
endfacet
facet normal -0.759838 -0.423135 -0.493562
outer loop
vertex 8.58029 9.78119 8.74848
vertex 8.31038 9.34309 9.53959
vertex 7.83088 10.2443 9.50515
endloop
endfacet
facet normal 0.800656 0.594024 0.0780106
outer loop
vertex 12.3346 11.9399 11.6894
vertex 11.6904 12.8143 11.643
vertex 12.2148 11.9147 13.1113
endloop
endfacet
facet normal 0.00209478 -0.717576 0.696477
outer loop
vertex 10.0363 8.66466 14.8346
vertex 10.8119 8.21932 14.3734
vertex 11.2734 8.53194 14.6941
endloop
endfacet
facet normal -0.00941514 0.99811 -0.060724
outer loop
vertex 11.1878 13.0446 10.0894
vertex 10.2812 13.018 9.79354
vertex 10.8918 13.1394 11.6941
endloop
endfacet
facet normal -0.266182 0.930462 0.251768
outer loop
vertex 9.5367 12.7314 12.9838
vertex 9.75022 12.5315 13.948
vertex 10.5017 12.8457 13.5813
endloop
endfacet
facet normal -0.908976 0.416725 -0.0101568
outer loop
vertex 7.71406 11.0413 10.3715
vertex 7.95723 11.6021 11.6177
vertex 8.07499 11.8307 10.4593
endloop
endfacet
facet normal -0.45333 0.890762 0.0321766
outer loop
vertex 9.45192 12.8188 10.223
vertex 8.89103 12.486 11.5327
vertex 9.99116 13.0408 11.6736
endloop
endfacet
facet normal -0.0678384 -0.933122 -0.353101
outer loop
vertex 9.12186 8.52806 9.65875
vertex 9.88524 8.56529 9.41369
vertex 9.77021 8.28667 10.1721
endloop
endfacet
facet normal -0.749392 0.168633 0.640293
outer loop
vertex 8.74133 10.9824 14.489
vertex 8.28708 10.949 13.9662
vertex 8.74048 10.134 14.7115
endloop
endfacet
facet normal -0.671275 0.724319 0.157325
outer loop
vertex 7.95723 11.6021 11.6177
vertex 8.17777 11.5191 12.941
vertex 8.89103 12.486 11.5327
endloop
endfacet
facet normal 0.977669 0.205495 -0.0439963
outer loop
vertex 12.3346 11.9399 11.6894
vertex 12.4956 11.0795 11.2467
vertex 12.2605 11.9635 10.1511
endloop
endfacet
facet normal 0.551098 0.646681 -0.527346
outer loop
vertex 10.8817 12.0306 7.49507
vertex 10.537 12.441 7.63818
vertex 11.304 12.5203 8.53695
endloop
endfacet
facet normal 0.801515 -0.564687 -0.196732
outer loop
vertex 12.3561 9.22449 13.0389
vertex 11.9033 9.25197 11.1153
vertex 12.7259 9.88225 12.6576
endloop
endfacet
facet normal -0.186913 -0.970345 -0.153275
outer loop
vertex 9.10233 8.17217 11.7114
vertex 8.8269 8.4188 10.4859
vertex 9.77021 8.28667 10.1721
endloop
endfacet
facet normal 0.68798 0.701922 0.184364
outer loop
vertex 11.6904 12.8143 11.643
vertex 11.356 12.7849 13.003
vertex 12.2148 11.9147 13.1113
endloop
endfacet
facet normal 0.480862 -0.850072 -0.214824
outer loop
vertex 11.2017 8.72975 10.3132
vertex 11.0774 8.23742 11.9832
vertex 10.5167 8.35268 10.2719
endloop
endfacet
facet normal -0.421306 0.875619 -0.236205
outer loop
vertex 9.82945 12.3477 7.39585
vertex 8.97185 12.0405 7.78651
vertex 10.1253 12.7248 8.2659
endloop
endfacet
facet normal -0.883255 -0.276783 0.378486
outer loop
vertex 7.86693 9.73165 13.5188
vertex 8.0521 9.08647 13.4791
vertex 8.38365 9.27292 14.3892
endloop
endfacet
facet normal 0.0171743 0.915258 -0.402502
outer loop
vertex 10.537 12.441 7.63818
vertex 9.82945 12.3477 7.39585
vertex 10.1253 12.7248 8.2659
endloop
endfacet
facet normal 0.104552 0.930166 -0.351938
outer loop
vertex 10.537 12.441 7.63818
vertex 10.1253 12.7248 8.2659
vertex 10.8513 12.8124 8.71292
endloop
endfacet
facet normal -0.878788 -0.107875 0.46486
outer loop
vertex 7.86693 9.73165 13.5188
vertex 8.38365 9.27292 14.3892
vertex 8.22589 10.1713 14.2994
endloop
endfacet
facet normal -0.109224 0.993886 0.0161285
outer loop
vertex 9.99116 13.0408 11.6736
vertex 10.5329 13.0854 12.5945
vertex 10.8918 13.1394 11.6941
endloop
endfacet
facet normal 0.382131 0.833235 -0.399619
outer loop
vertex 10.537 12.441 7.63818
vertex 10.8513 12.8124 8.71292
vertex 11.304 12.5203 8.53695
endloop
endfacet
facet normal -0.258513 0.964631 -0.0515493
outer loop
vertex 10.2812 13.018 9.79354
vertex 9.45192 12.8188 10.223
vertex 9.99116 13.0408 11.6736
endloop
endfacet
facet normal -0.566622 0.361766 0.740314
outer loop
vertex 8.22589 10.1713 14.2994
vertex 8.74048 10.134 14.7115
vertex 8.28708 10.949 13.9662
endloop
endfacet
facet normal -0.494814 -0.586416 -0.641308
outer loop
vertex 8.31038 9.34309 9.53959
vertex 9.10402 9.14806 9.10558
vertex 9.12186 8.52806 9.65875
endloop
endfacet
facet normal -0.646955 -0.69121 -0.321989
outer loop
vertex 8.31038 9.34309 9.53959
vertex 9.12186 8.52806 9.65875
vertex 8.8269 8.4188 10.4859
endloop
endfacet
facet normal -0.62109 0.590036 0.515853
outer loop
vertex 8.89118 11.9235 13.593
vertex 8.74133 10.9824 14.489
vertex 9.41668 11.7806 14.3891
endloop
endfacet
facet normal -0.26059 0.0405684 0.964597
outer loop
vertex 8.74048 10.134 14.7115
vertex 9.01542 9.09972 14.8293
vertex 9.82197 9.48309 15.031
endloop
endfacet
facet normal -0.18329 -0.640158 -0.746058
outer loop
vertex 10.1594 9.15509 8.84026
vertex 9.88524 8.56529 9.41369
vertex 9.10402 9.14806 9.10558
endloop
endfacet
facet normal -0.201718 -0.655286 -0.727949
outer loop
vertex 9.12186 8.52806 9.65875
vertex 9.10402 9.14806 9.10558
vertex 9.88524 8.56529 9.41369
endloop
endfacet
facet normal -0.723517 -0.654221 -0.220266
outer loop
vertex 7.94667 9.42869 10.3778
vertex 8.8269 8.4188 10.4859
vertex 8.44554 8.43979 11.6763
endloop
endfacet
facet normal -0.115977 -0.260463 0.958493
outer loop
vertex 9.01542 9.09972 14.8293
vertex 10.0363 8.66466 14.8346
vertex 9.82197 9.48309 15.031
endloop
endfacet
facet normal -0.994308 -0.0372218 -0.0998282
outer loop
vertex 7.88891 11.1068 8.60557
vertex 7.83088 10.2443 9.50515
vertex 7.71406 11.0413 10.3715
endloop
endfacet
facet normal 0.637324 0.634227 0.437693
outer loop
vertex 11.614 11.8764 14.316
vertex 12.0458 11.7167 13.9187
vertex 11.2718 12.5354 13.8593
endloop
endfacet
facet normal -0.606742 0.769782 -0.198242
outer loop
vertex 8.97185 12.0405 7.78651
vertex 8.06169 11.6322 8.98681
vertex 8.82909 12.2177 8.9116
endloop
endfacet
facet normal 0.210032 -0.729972 -0.650405
outer loop
vertex 9.88524 8.56529 9.41369
vertex 10.1594 9.15509 8.84026
vertex 10.8201 8.81417 9.43627
endloop
endfacet
facet normal 0.86336 -0.41052 -0.293398
outer loop
vertex 11.7364 9.63118 9.64136
vertex 12.1774 10.5313 9.6796
vertex 12.4422 10.2307 10.8794
endloop
endfacet
facet normal 0.265948 0.950106 0.163006
outer loop
vertex 10.8918 13.1394 11.6941
vertex 10.5329 13.0854 12.5945
vertex 11.356 12.7849 13.003
endloop
endfacet
facet normal -0.701226 0.588708 0.402126
outer loop
vertex 8.89118 11.9235 13.593
vertex 8.17777 11.5191 12.941
vertex 8.28708 10.949 13.9662
endloop
endfacet
facet normal 0.354865 -0.8714 0.338722
outer loop
vertex 10.8119 8.21932 14.3734
vertex 11.6726 8.44712 14.0577
vertex 11.2734 8.53194 14.6941
endloop
endfacet
facet normal -0.890646 0.419755 -0.174802
outer loop
vertex 7.88891 11.1068 8.60557
vertex 8.06169 11.6322 8.98681
vertex 8.31374 11.5502 7.50556
endloop
endfacet
facet normal -0.0836636 -0.99389 0.0719874
outer loop
vertex 9.38559 8.1177 13.0435
vertex 10.1744 8.00846 12.452
vertex 10.0098 8.12579 13.8807
endloop
endfacet
facet normal -0.559942 0.821143 -0.110407
outer loop
vertex 8.82909 12.2177 8.9116
vertex 9.45192 12.8188 10.223
vertex 9.59082 12.7375 8.91452
endloop
endfacet
facet normal -0.0392708 -0.968047 0.247674
outer loop
vertex 10.0098 8.12579 13.8807
vertex 11.1371 8.01194 13.6144
vertex 10.8119 8.21932 14.3734
endloop
endfacet
facet normal -0.222885 -0.92187 0.316984
outer loop
vertex 9.10209 8.56923 14.532
vertex 8.63867 8.44316 13.8396
vertex 10.0098 8.12579 13.8807
endloop
endfacet
facet normal 0.583126 -0.581251 -0.567549
outer loop
vertex 10.6407 9.73513 8.40917
vertex 11.4933 10.2649 8.74259
vertex 11.7364 9.63118 9.64136
endloop
endfacet
facet normal 0.920858 0.387996 -0.0384597
outer loop
vertex 12.3346 11.9399 11.6894
vertex 12.2605 11.9635 10.1511
vertex 11.9923 12.6418 10.5722
endloop
endfacet
facet normal 0.359516 0.901739 -0.240033
outer loop
vertex 10.8513 12.8124 8.71292
vertex 11.1878 13.0446 10.0894
vertex 11.7367 12.664 9.48193
endloop
endfacet
facet normal -0.951469 0.148952 0.269295
outer loop
vertex 8.00005 10.694 13.4568
vertex 7.71997 10.1336 12.7773
vertex 7.86693 9.73165 13.5188
endloop
endfacet
facet normal 0.804756 -0.250518 0.538152
outer loop
vertex 11.2734 8.53194 14.6941
vertex 11.6726 8.44712 14.0577
vertex 11.2685 9.05151 14.9434
endloop
endfacet
facet normal 0.243524 -0.700587 -0.670726
outer loop
vertex 10.1594 9.15509 8.84026
vertex 10.6407 9.73513 8.40917
vertex 10.8201 8.81417 9.43627
endloop
endfacet
facet normal -0.205244 0.561883 0.80135
outer loop
vertex 9.41668 11.7806 14.3891
vertex 10.5193 12.2315 14.3554
vertex 9.75022 12.5315 13.948
endloop
endfacet
facet normal 0.878907 0.372383 -0.298082
outer loop
vertex 11.8984 11.9718 9.09383
vertex 11.7367 12.664 9.48193
vertex 12.2605 11.9635 10.1511
endloop
endfacet
facet normal -0.0239137 0.782839 0.621765
outer loop
vertex 9.75022 12.5315 13.948
vertex 10.5193 12.2315 14.3554
vertex 10.5017 12.8457 13.5813
endloop
endfacet
facet normal 0.116987 0.253622 0.960203
outer loop
vertex 9.82112 10.8113 14.8156
vertex 11.162 10.8929 14.6307
vertex 10.5193 12.2315 14.3554
endloop
endfacet
facet normal 0.608364 -0.535144 -0.586101
outer loop
vertex 10.8201 8.81417 9.43627
vertex 10.6407 9.73513 8.40917
vertex 11.7364 9.63118 9.64136
endloop
endfacet
facet normal -0.468829 -0.695167 -0.544924
outer loop
vertex 9.10402 9.14806 9.10558
vertex 8.31038 9.34309 9.53959
vertex 8.58029 9.78119 8.74848
endloop
endfacet
facet normal -0.609711 0.786229 -0.100484
outer loop
vertex 8.06169 11.6322 8.98681
vertex 8.07499 11.8307 10.4593
vertex 8.82909 12.2177 8.9116
endloop
endfacet
facet normal -0.291325 -0.949696 0.114924
outer loop
vertex 8.63867 8.44316 13.8396
vertex 8.44877 8.37656 12.8078
vertex 9.38559 8.1177 13.0435
endloop
endfacet
facet normal -0.874582 0.378131 0.303518
outer loop
vertex 8.17777 11.5191 12.941
vertex 8.00005 10.694 13.4568
vertex 8.28708 10.949 13.9662
endloop
endfacet
facet normal -0.432041 -0.686956 -0.584321
outer loop
vertex 8.58029 9.78119 8.74848
vertex 9.55234 9.72228 8.09901
vertex 9.10402 9.14806 9.10558
endloop
endfacet
facet normal 0.78463 -0.539796 0.304921
outer loop
vertex 11.6726 8.44712 14.0577
vertex 12.1826 9.12418 13.9438
vertex 11.796 8.90957 14.5587
endloop
endfacet
facet normal -0.144355 -0.989478 -0.00976463
outer loop
vertex 9.38559 8.1177 13.0435
vertex 9.10233 8.17217 11.7114
vertex 10.1744 8.00846 12.452
endloop
endfacet
facet normal 0.377783 0.925773 0.0149762
outer loop
vertex 11.1878 13.0446 10.0894
vertex 10.8918 13.1394 11.6941
vertex 11.6904 12.8143 11.643
endloop
endfacet
facet normal 0.206339 -0.688192 -0.695569
outer loop
vertex 9.55234 9.72228 8.09901
vertex 10.6407 9.73513 8.40917
vertex 10.1594 9.15509 8.84026
endloop
endfacet
facet normal -0.837006 -0.544288 0.0563078
outer loop
vertex 8.0521 9.08647 13.4791
vertex 7.67226 9.56106 12.4204
vertex 7.95953 9.07222 11.9653
endloop
endfacet
facet normal -0.847723 -0.527388 0.0568041
outer loop
vertex 8.0521 9.08647 13.4791
vertex 7.95953 9.07222 11.9653
vertex 8.44877 8.37656 12.8078
endloop
endfacet
facet normal 0.958272 0.22442 0.177063
outer loop
vertex 12.4513 10.6495 13.8153
vertex 12.6023 9.95283 13.8808
vertex 12.5574 10.8744 12.956
endloop
endfacet
facet normal 0.298631 0.191444 0.93497
outer loop
vertex 10.8574 9.79935 14.9519
vertex 11.7986 9.75781 14.6597
vertex 11.162 10.8929 14.6307
endloop
endfacet
facet normal -0.128681 -0.835623 -0.534019
outer loop
vertex 9.55234 9.72228 8.09901
vertex 10.1594 9.15509 8.84026
vertex 9.10402 9.14806 9.10558
endloop
endfacet
facet normal 0.126368 -0.937186 -0.325137
outer loop
vertex 9.77021 8.28667 10.1721
vertex 9.88524 8.56529 9.41369
vertex 10.5167 8.35268 10.2719
endloop
endfacet
facet normal -0.644358 -0.549986 0.531336
outer loop
vertex 8.63867 8.44316 13.8396
vertex 9.10209 8.56923 14.532
vertex 8.38365 9.27292 14.3892
endloop
endfacet
endsolid WEMtoSTL_0
